<?xml version="1.0" encoding="UTF-8"?>
<svg id="Layer_1" data-name="Layer 1" xmlns="http://www.w3.org/2000/svg" viewBox="0 0 218.87 137.54">
  <defs>
    <style>
      .cls-1 {
        fill: #fff;
      }
    </style>
  </defs>
  <path class="cls-1" d="M177.69,51.85c16.77.66,30.18,11.34,37.3,26.04,8.38,17.29,2.73,37.6-12.52,49.34-12.25,9.43-22,9.09-36.64,9.29-2.73.04-13.06-.9-14.82-.29-.27.1-.28.81-.46.85-1.69.43-.66-1.35-2.15-.95l-.24.94c-1.51-1.09-6.38-1.24-8.18-1-.92.12-.67,1.02-.93,1.02-.78,0-1.54-1.01-2.39-.98-1.12.04-1.68,2.09-2.46-.02h-12.31l-.55.98-.53-.95-23.65-.02v1.44l-2.08-1.31-64.12.2c-31.73-2.87-42.4-42.18-16.15-61.28,1.34-.97,6.46-3.58,6.88-4.13,1.12-1.46,1.88-7.06,2.83-8.95,2.29-4.57,10.88-12.59,15.24-15.31.17-.11.89.35,1.35.15,5.77-2.56,11.21-4,17.65-3.69,5.62-15.98,16.98-30.31,32.48-37.64,31.01-14.67,68.14.87,81.68,31.66,2.08,4.73,3.18,9.71,4.78,14.59v.02ZM128.59,43.97c-6.49-5.86-15.95-6.51-22.59-.63s-13.06,14.56-20.11,20.59c.1,1.12-1.15,2.04-1.17,2.17-.68,5.03,3.81,7.81,8.19,5.28,2.08-1.2,8.72-8.76,10.96-11.06,1.45-1.5,3.53-4.42,4.93-5.84,1-1.02,5.99-5.57,6.9-5.78,3.63-.85,5.06,1.58,7.34,3.95,4.72,4.92,12.16,14.78,17.11,18.44s10.74-.91,8.2-6.41l-19.75-20.7h-.01ZM120.94,74.09c-2.52-2.12-7.71-.98-8.74,2.21-.3.92-.55,3.4-.58,4.46-.15,5.16.85,11.03.36,16.37-.2,2.27-1.51,6.78-4.77,5.28-1.33-.61-4.8-5.17-6.48-6.46-12.14-9.38-31.72-5.06-38.08,9.08.88.19,1.17-.47,1.7-.95,6.58-6.13,16.84-7.89,25.6-5.49,7.06,1.93,11.54,6.29,16.74,11.03,9.93-7.84,21.99-9.97,33.66-4.44l6.12,3.69c.07-1.75-2.02-2.66-2.72-3.49-.47-.55-.51-1.45-1.09-2.02-5.31-5.27-12.46-6.58-19.61-6.96-.5-.74.25-15.25-.04-17.9-.15-1.39-1.01-3.5-2.07-4.39v-.02Z"/>
</svg>